<svg width="24" height="22" viewBox="0 0 24 22" fill="none" xmlns="http://www.w3.org/2000/svg">
<path fill-rule="evenodd" clip-rule="evenodd" d="M15.7798 2.18656L23.4186 15.5005C25.0821 18.4005 22.9761 21.9972 19.6387 21.9972H4.3619C1.02395 21.9972 -1.08272 18.4009 0.582041 15.5005M0.582041 15.5005L8.21987 2.18656C9.89189 -0.728869 14.1077 -0.728837 15.7798 2.18656M13.4002 7.07075C13.4002 6.47901 12.863 5.99932 12.2002 5.99932C11.5375 5.99932 11.0002 6.47901 11.0002 7.07075V13.4993C11.0002 14.0911 11.5375 14.5707 12.2002 14.5707C12.863 14.5707 13.4002 14.0911 13.4002 13.4993V7.07075ZM13.5717 17.2774C13.5717 16.5709 12.996 15.9981 12.286 15.9981C11.5759 15.9981 11.0002 16.5709 11.0002 17.2774V17.2902C11.0002 17.9967 11.5759 18.5695 12.286 18.5695C12.996 18.5695 13.5717 17.9967 13.5717 17.2902V17.2774Z" fill="#232735"/>
</svg>
